PathFileType	4	(X/Y/Z)	 s01c0102.trc
DataRate	CameraRate	NumFrames	NumMarkers	Units	OrigDataRate	OrigDataStartFrame	OrigNumFrames
200	200	7	48	mm	200	1751	2000
Frame#	Time	racr			lacr			c7			jug			rlel			rdr			llel			ldr			s2			lic			ric			lasi			rasi			rpsi			lpsi			rgt			lgt			rth1			rth2			rth3			rth4			rlfc			rsh1			rsh2			rsh3			rsh4			rlmal			rmmal			rcal			rtoe			rmt5			lth1			lth2			lth4			lth3			llfc			lsh1			lsh2			lsh3			lsh4			llmal			lmmal			lcal			ltoe			lmt5			SBIKE			LBIKE			RBIKE			
		X1	Y1	Z1	X2	Y2	Z2	X3	Y3	Z3	X4	Y4	Z4	X5	Y5	Z5	X6	Y6	Z6	X7	Y7	Z7	X8	Y8	Z8	X9	Y9	Z9	X10	Y10	Z10	X11	Y11	Z11	X12	Y12	Z12	X13	Y13	Z13	X14	Y14	Z14	X15	Y15	Z15	X16	Y16	Z16	X17	Y17	Z17	X18	Y18	Z18	X19	Y19	Z19	X20	Y20	Z20	X21	Y21	Z21	X22	Y22	Z22	X23	Y23	Z23	X24	Y24	Z24	X25	Y25	Z25	X26	Y26	Z26	X27	Y27	Z27	X28	Y28	Z28	X29	Y29	Z29	X30	Y30	Z30	X31	Y31	Z31	X32	Y32	Z32	X33	Y33	Z33	X34	Y34	Z34	X35	Y35	Z35	X36	Y36	Z36	X37	Y37	Z37	X38	Y38	Z38	X39	Y39	Z39	X40	Y40	Z40	X41	Y41	Z41	X42	Y42	Z42	X43	Y43	Z43	X44	Y44	Z44	X45	Y45	Z45	X46	Y46	Z46	X47	Y47	Z47	X48	Y48	Z48	
1751	8.7550	508.503929	1355.882939	-110.342203	526.129322	1358.780937	-410.457893	421.626350	1430.042957	-261.305528	477.271014	1271.650638	-266.298723	600.660351	1078.816504	-50.654191	733.054884	852.791832	-77.441575	610.312670	1082.233446	-467.946246	733.861791	863.570899	-421.042851	-64.993985	1153.373375	-233.892725	96.744376	1161.487226	-415.355205	122.179008	1136.130727	-99.047725	85.314383	1103.349099	-402.985791	133.958819	1093.421887	-133.367171	-23.362441	1184.850010	-182.940298	-39.853422	1196.194803	-287.714591	61.583498	1040.506605	-56.435159	12.111184	1021.738131	-444.473411	174.596684	977.157327	-57.573753	253.458106	953.187258	-67.603244	336.201140	920.663231	-85.331334	270.020636	1004.074713	-84.469147	409.558502	848.534822	-116.797628	317.536488	782.794398	-81.895963	253.666728	727.112306	-82.079390	180.362146	676.483758	-89.737559	281.658263	691.779077	-122.099792	75.354418	602.392554	-101.704921	112.500179	594.164918	-184.523539	14.954047	592.122081	-153.331410	251.220693	457.809835	-136.838140	144.815118	478.447039	-67.842812	62.636731	896.962361	-452.290173	123.788833	832.012539	-449.058785	164.160285	869.091347	-445.137317	175.813027	768.002848	-425.918179	234.652719	671.258560	-409.044231	197.991260	563.826573	-443.765405	198.977739	476.905802	-439.751748	197.792172	391.425244	-426.604498	255.231543	479.367061	-413.513559	196.340963	262.337842	-408.411030	NaN	NaN	NaN	153.888402	226.528099	-366.999584	431.072784	212.987469	-372.660892	327.099546	187.672207	-438.609201	-225.146864	892.497524	-252.621841	-12.657924	84.564097	-455.927207	-21.554020	80.799361	-55.850414	
1752	8.7600	508.664063	1356.000877	-110.178160	526.302730	1358.866663	-410.245100	421.747245	1430.230490	-261.160952	477.405492	1271.796822	-266.183889	600.737401	1078.867564	-50.582725	733.034704	852.797941	-77.408633	610.488850	1082.344786	-467.677893	733.890777	863.565689	-420.994675	-64.850301	1153.406531	-233.976953	96.897666	1161.494044	-415.301906	122.333348	1136.133525	-99.008974	85.526983	1103.366321	-402.914484	134.092800	1093.368445	-133.307275	-23.251135	1184.866400	-182.888588	-39.718467	1196.233081	-287.669516	61.670576	1040.476308	-56.405031	12.368986	1021.770258	-444.453872	174.613913	977.115738	-57.447235	253.506946	953.118851	-67.428736	336.283431	920.612496	-85.129593	270.109457	1004.005554	-84.248093	409.646741	848.414507	-116.550494	317.600424	782.679321	-81.696759	253.714165	727.028770	-81.935454	180.405052	676.436722	-89.633494	281.703262	691.722392	-121.973769	75.371682	602.384912	-101.683398	112.545327	594.160223	-184.473659	14.975757	592.135823	-153.316747	251.215200	457.781011	-136.815727	144.807698	478.429982	-67.844076	62.890960	897.012494	-452.255238	124.021809	832.087987	-448.997730	164.362419	869.150405	-445.045053	176.020428	768.057600	-425.866151	234.861785	671.303256	-409.002857	198.165051	563.877509	-443.749615	199.128793	476.953597	-439.722236	197.909846	391.489898	-426.600845	255.395773	479.424088	-413.503625	196.386883	262.413534	-408.410452	NaN	NaN	NaN	153.936050	226.586230	-366.977392	431.101364	212.975476	-372.665428	327.134268	187.707533	-438.598774	-225.142913	892.516191	-252.612569	-12.656454	84.578650	-455.910986	-21.572373	80.815576	-55.841219	
1753	8.7650	508.824474	1356.094931	-110.010373	526.484675	1358.963011	-410.047574	421.836259	1430.418379	-260.992364	477.513395	1271.932948	-266.058925	600.817886	1078.916978	-50.531760	733.033661	852.814133	-77.405648	610.635192	1082.421257	-467.424196	733.894362	863.553610	-420.971075	-64.719030	1153.417843	-233.925642	96.997143	1161.537099	-415.195475	122.487955	1136.129166	-98.956098	85.723643	1103.404920	-402.822750	134.213157	1093.343889	-133.230468	-23.131712	1184.867077	-182.830398	-39.586721	1196.252818	-287.627244	61.739885	1040.458539	-56.374295	12.604792	1021.827449	-444.422847	174.687057	977.051466	-57.328111	253.546202	953.058934	-67.274996	336.351240	920.532016	-84.909612	270.196250	1003.916778	-84.051238	409.725115	848.340657	-116.243544	317.657283	782.588951	-81.511254	253.757508	726.945013	-81.770042	180.436127	676.398344	-89.530553	281.747301	691.645581	-121.809291	75.389832	602.400245	-101.657225	112.565359	594.187840	-184.468352	15.010542	592.159163	-153.309335	251.223188	457.767975	-136.821749	144.807985	478.433989	-67.827889	63.148673	897.091733	-452.213315	124.267901	832.161066	-448.947044	164.587135	869.218040	-444.961909	176.230668	768.115972	-425.819744	235.078870	671.357326	-408.961781	198.352557	563.946977	-443.710417	199.294080	477.005930	-439.697732	198.042784	391.564519	-426.599896	255.545744	479.444907	-413.458504	196.465851	262.462635	-408.405432	NaN	NaN	NaN	153.973897	226.676161	-367.009909	431.143209	212.955663	-372.656118	327.166413	187.725990	-438.596934	-225.142384	892.533478	-252.599374	-12.666705	84.564453	-455.920658	-21.570374	80.813808	-55.841203	
1754	8.7700	508.960654	1356.204589	-109.865737	526.686792	1359.033994	-409.855611	421.940815	1430.588519	-260.847915	477.640111	1272.059151	-265.950207	600.872981	1078.960824	-50.460497	733.045195	852.828084	-77.396675	610.744840	1082.494359	-467.205917	733.909747	863.545257	-420.950149	-64.318379	1153.633598	-231.666127	97.215091	1161.597057	-415.163573	122.618529	1136.124226	-98.904549	85.920635	1103.439062	-402.726223	134.352929	1093.218230	-133.166052	-22.966747	1184.846059	-182.795525	-39.447434	1196.274598	-287.580762	61.805539	1040.457840	-56.334829	12.840415	1021.879257	-444.392850	174.733102	977.007914	-57.186365	253.596071	952.985328	-67.081542	336.409230	920.448707	-84.709174	270.272709	1003.868549	-83.868516	409.837403	848.268050	-115.963448	317.725840	782.507700	-81.314111	253.803290	726.852730	-81.608156	180.459828	676.360410	-89.434002	281.812031	691.578064	-121.640792	75.406507	602.401824	-101.640255	112.618923	594.207402	-184.434695	15.028400	592.188884	-153.303799	251.208839	457.740943	-136.819382	144.805645	478.428551	-67.828670	63.431208	897.198071	-452.177811	124.511923	832.254724	-448.900487	164.832792	869.298324	-444.869650	176.464517	768.172774	-425.762408	235.304432	671.417287	-408.913054	198.534904	564.025256	-443.678185	199.455871	477.080778	-439.674527	198.179947	391.634112	-426.600157	255.701690	479.486202	-413.426134	196.527423	262.526377	-408.409986	NaN	NaN	NaN	154.016219	226.773229	-367.013364	431.183666	212.933072	-372.664696	327.187392	187.729325	-438.606600	-225.136845	892.541839	-252.585350	-12.665382	84.567185	-455.922127	-21.565420	80.808833	-55.841621	
1755	8.7750	509.087787	1356.325175	-109.705705	526.866277	1359.142626	-409.656923	422.029862	1430.767865	-260.715168	477.783787	1272.218678	-265.824939	600.952453	1079.034989	-50.380412	733.043056	852.829944	-77.409463	610.855893	1082.571188	-466.981066	733.923756	863.526941	-420.940920	-64.164343	1153.650192	-231.630708	97.446246	1161.625675	-415.104013	122.733262	1136.131321	-98.847445	86.125564	1103.483234	-402.614411	134.481056	1093.169628	-133.089395	-22.854560	1184.851601	-182.729871	-39.316907	1196.336220	-287.540806	61.889439	1040.460606	-56.288515	13.090951	1021.938771	-444.346480	174.765004	976.969500	-57.058018	253.628597	952.907716	-66.903208	336.447810	920.379810	-84.530832	270.323559	1003.806194	-83.691906	409.923462	848.181680	-115.686362	317.809214	782.415845	-81.095048	253.867442	726.805691	-81.475158	180.502310	676.329428	-89.346406	281.845800	691.497716	-121.497655	75.432582	602.399888	-101.617009	112.645185	594.225560	-184.406856	15.052254	592.218003	-153.302533	251.205100	457.701341	-136.821460	144.806099	478.421608	-67.827277	63.676428	897.270290	-452.127770	124.824530	832.388272	-448.873955	165.097027	869.412449	-444.767083	176.778912	768.246806	-425.722414	235.531916	671.478848	-408.869091	198.740640	564.102121	-443.634410	199.631609	477.150837	-439.650553	198.315315	391.707375	-426.579592	255.842696	479.549314	-413.396196	196.601426	262.608633	-408.385605	NaN	NaN	NaN	154.058539	226.870294	-367.016820	431.213521	212.903525	-372.652508	327.221287	187.741703	-438.601350	-225.130189	892.550356	-252.574522	-12.655161	84.592059	-455.919273	-21.556379	80.798848	-55.831100	
1756	8.7800	509.220198	1356.450167	-109.545122	527.065960	1359.253771	-409.508668	422.140614	1430.935021	-260.552622	477.937729	1272.362392	-265.681517	601.031492	1079.068355	-50.303376	733.071410	852.846444	-77.398836	610.953299	1082.631192	-466.782397	733.938670	863.505686	-420.938310	-63.994732	1153.676328	-231.562204	97.681989	1161.694937	-415.047743	122.857086	1136.142097	-98.802415	86.339469	1103.517030	-402.487392	134.635176	1093.166669	-133.015139	-22.710408	1184.843142	-182.684504	-39.152668	1196.346832	-287.506605	61.965128	1040.442714	-56.236348	13.319800	1022.005721	-444.306692	174.828742	976.907138	-56.931268	253.690496	952.855066	-66.693494	336.494988	920.298998	-84.316073	270.385738	1003.761780	-83.512834	410.004740	848.102907	-115.410930	317.900276	782.330968	-80.849923	253.884293	726.712551	-81.320613	180.537748	676.303847	-89.233411	281.868631	691.403726	-121.361921	75.443307	602.405870	-101.574278	112.692590	594.226014	-184.367187	15.077778	592.249857	-153.282387	251.218055	457.687936	-136.805685	144.807551	478.413425	-67.828940	63.931491	897.347036	-452.086173	125.120369	832.456077	-448.822676	165.402730	869.500337	-444.671481	177.044169	768.316906	-425.651080	235.764091	671.542818	-408.825338	198.952368	564.182623	-443.589216	199.787803	477.248929	-439.614861	198.454120	391.774422	-426.581639	255.992486	479.595034	-413.339493	196.670477	262.678114	-408.379258	NaN	NaN	NaN	154.127932	226.981954	-366.996594	431.268929	212.867484	-372.652407	327.258352	187.773061	-438.593941	-225.123212	892.555573	-252.559707	-12.661633	84.588034	-455.908980	-21.571416	80.813214	-55.831338	
1757	8.7850	509.343495	1356.552335	-109.401327	527.231386	1359.343395	-409.372136	422.255141	1431.066149	-260.436665	478.069036	1272.498264	-265.563930	601.094831	1079.122478	-50.216395	733.089091	852.831162	-77.398778	611.067375	1082.689480	-466.593963	733.927817	863.481616	-420.922011	-63.829849	1153.699855	-231.528216	97.951991	1161.722932	-414.988392	122.980104	1136.127059	-98.743890	86.579288	1103.551583	-402.398620	134.749915	1093.155825	-132.901765	-22.527356	1184.848825	-182.647452	-38.933042	1196.368628	-287.486889	62.055828	1040.435533	-56.181575	13.582178	1022.076111	-444.282516	174.878185	976.866971	-56.788871	253.737274	952.799273	-66.514975	336.555470	920.244630	-84.109647	270.450986	1003.694032	-83.315355	410.072100	848.031458	-115.149229	317.989958	782.244452	-80.644565	253.917809	726.650866	-81.164123	180.585741	676.265153	-89.139143	281.923055	691.367131	-121.205971	75.482805	602.405114	-101.555592	112.717848	594.251401	-184.347089	15.128874	592.271251	-153.269856	251.227024	457.654882	-136.817640	144.811944	478.391325	-67.832922	64.228838	897.400232	-452.064841	125.402256	832.532259	-448.754004	165.705514	869.594720	-444.567162	177.303424	768.402264	-425.578247	236.008101	671.606758	-408.775294	199.161197	564.259857	-443.545716	199.955037	477.313105	-439.582451	198.585224	391.857702	-426.571244	256.164257	479.656395	-413.291534	196.729992	262.775788	-408.369794	NaN	NaN	NaN	154.174728	227.086159	-366.970991	431.313526	212.811603	-372.647566	327.286485	187.780767	-438.594864	-225.117584	892.561511	-252.548358	-12.656564	84.579505	-455.917243	-21.570621	80.802088	-55.843141	
